<?xml version="1.0" encoding="UTF-8" standalone="no"?>
<!-- Created with Inkscape (http://www.inkscape.org/) -->

<svg
   xmlns:dc="http://purl.org/dc/elements/1.1/"
   xmlns:cc="http://creativecommons.org/ns#"
   xmlns:rdf="http://www.w3.org/1999/02/22-rdf-syntax-ns#"
   xmlns:svg="http://www.w3.org/2000/svg"
   xmlns="http://www.w3.org/2000/svg"
   xmlns:sodipodi="http://sodipodi.sourceforge.net/DTD/sodipodi-0.dtd"
   xmlns:inkscape="http://www.inkscape.org/namespaces/inkscape"
   width="15.9375mm"
   height="15.9375mm"
   viewBox="0 0 15.9375 15.9375"
   version="1.1"
   id="svg1057"
   inkscape:version="0.92.5 (2060ec1f9f, 2020-04-08)"
   sodipodi:docname="ball.svg">
  <defs
     id="defs1051" />
  <sodipodi:namedview
     id="base"
     pagecolor="#ffffff"
     bordercolor="#666666"
     borderopacity="1.0"
     inkscape:pageopacity="0.0"
     inkscape:pageshadow="2"
     inkscape:zoom="3.959798"
     inkscape:cx="-64.359614"
     inkscape:cy="8.3534764"
     inkscape:document-units="px"
     inkscape:current-layer="layer1"
     showgrid="false"
     inkscape:pagecheckerboard="true"
     fit-margin-top="4"
     fit-margin-left="4"
     fit-margin-right="4"
     fit-margin-bottom="4"
     inkscape:window-width="2560"
     inkscape:window-height="1016"
     inkscape:window-x="0"
     inkscape:window-y="27"
     inkscape:window-maximized="1" />
  <metadata
     id="metadata1054">
    <rdf:RDF>
      <cc:Work
         rdf:about="">
        <dc:format>image/svg+xml</dc:format>
        <dc:type
           rdf:resource="http://purl.org/dc/dcmitype/StillImage" />
        <dc:title></dc:title>
      </cc:Work>
    </rdf:RDF>
  </metadata>
  <g
     inkscape:label="Calque 1"
     inkscape:groupmode="layer"
     id="layer1"
     transform="translate(-19.245536,-131.79315)">
    <g
       id="g1606"
       transform="translate(-95.366994,-4.6824152)">
      <path
         style="opacity:1;fill:#ffffff;fill-opacity:1;stroke:none;stroke-width:10.5817318;stroke-linecap:round;stroke-linejoin:round;stroke-miterlimit:4;stroke-dasharray:42.32692661, 21.16346331;stroke-dashoffset:0;stroke-opacity:1;paint-order:markers fill stroke"
         d="m 126.55003,144.44431 a 3.9687483,3.9687483 0 0 1 -3.96876,3.96876 3.9687483,3.9687483 0 0 1 -3.96874,-3.96876 3.9687483,3.9687483 0 0 1 3.96874,-3.96874 3.9687483,3.9687483 0 0 1 3.96876,3.96874 z"
         id="path1602"
         inkscape:connector-curvature="0" />
      <path
         style="color:#000000;font-style:normal;font-variant:normal;font-weight:normal;font-stretch:normal;font-size:medium;line-height:normal;font-family:sans-serif;font-variant-ligatures:normal;font-variant-position:normal;font-variant-caps:normal;font-variant-numeric:normal;font-variant-alternates:normal;font-feature-settings:normal;text-indent:0;text-align:start;text-decoration:none;text-decoration-line:none;text-decoration-style:solid;text-decoration-color:#000000;letter-spacing:normal;word-spacing:normal;text-transform:none;writing-mode:lr-tb;direction:ltr;text-orientation:mixed;dominant-baseline:auto;baseline-shift:baseline;text-anchor:start;white-space:normal;shape-padding:0;clip-rule:nonzero;display:inline;overflow:visible;visibility:visible;opacity:1;isolation:auto;mix-blend-mode:normal;color-interpolation:sRGB;color-interpolation-filters:linearRGB;solid-color:#000000;solid-opacity:1;vector-effect:none;fill:#808080;fill-opacity:1;fill-rule:nonzero;stroke:none;stroke-width:0.37215051;stroke-linecap:round;stroke-linejoin:round;stroke-miterlimit:4;stroke-dasharray:none;stroke-dashoffset:0;stroke-opacity:1;paint-order:markers fill stroke;color-rendering:auto;image-rendering:auto;shape-rendering:auto;text-rendering:auto;enable-background:accumulate"
         d="m 121.91491,140.52232 a 3.9735029,3.9735029 0 0 0 -0.4024,0.0902 c 0.067,0.0505 0.12225,0.14715 0.15573,0.31353 0.0547,0.27273 -0.0135,0.74202 -0.066,1.18315 -0.34356,-0.28158 -0.71712,-0.57343 -0.86628,-0.80814 -0.0847,-0.13335 -0.1143,-0.23617 -0.10755,-0.31686 a 3.9735029,3.9735029 0 0 0 -0.34346,0.21843 c 0.0289,0.10245 0.0751,0.20282 0.13545,0.29777 0.24033,0.37813 0.70178,0.73962 1.152,1.08762 -0.0476,0.30174 -0.0574,0.5157 -0.0942,0.78033 -0.26598,0.0313 -0.47991,0.0356 -0.78324,0.0768 -0.3382,-0.45705 -0.68836,-0.92597 -1.06104,-1.17401 -0.0904,-0.0601 -0.18609,-0.1071 -0.28407,-0.13875 a 3.9735029,3.9735029 0 0 0 -0.21303,0.33264 c 0.0766,0.003 0.17189,0.0361 0.29028,0.11505 0.23151,0.15408 0.51642,0.53432 0.79071,0.88373 -0.44185,0.0438 -0.91347,0.1011 -1.18482,0.0407 -0.13425,-0.03 -0.22228,-0.0726 -0.27739,-0.12375 a 3.9735029,3.9735029 0 0 0 -0.0859,0.38496 c 0.0875,0.0453 0.1824,0.0806 0.28321,0.10305 0.4373,0.0974 1.01784,0.0254 1.58223,-0.0469 0.18012,0.24747 0.3254,0.40471 0.48672,0.61836 -0.16611,0.21052 -0.31515,0.36466 -0.50083,0.6088 -0.56219,-0.084 -1.14177,-0.16656 -1.58057,-0.0785 -0.0998,0.0199 -0.19378,0.0528 -0.28074,0.0951 a 3.9735029,3.9735029 0 0 0 0.081,0.38247 c 0.0568,-0.0477 0.14385,-0.0868 0.27368,-0.11295 0.27246,-0.0548 0.7425,0.0135 1.18314,0.066 -0.28157,0.34356 -0.57344,0.71711 -0.80814,0.86628 -0.11025,0.0701 -0.19923,0.10185 -0.27285,0.10755 a 3.9735029,3.9735029 0 0 0 0.20682,0.33098 c 0.091,-0.03 0.18049,-0.0711 0.26536,-0.12495 0.37812,-0.24032 0.73964,-0.70016 1.08762,-1.15034 0.30204,0.0476 0.51501,0.0557 0.77991,0.0926 0.0313,0.26589 0.0375,0.47988 0.0789,0.78323 -0.45744,0.33844 -0.92743,0.68932 -1.17567,1.06228 -0.0566,0.0849 -0.0998,0.17528 -0.13125,0.26703 a 3.9735029,3.9735029 0 0 0 0.32724,0.21638 c 0.005,-0.0745 0.0381,-0.16515 0.11295,-0.27743 0.15408,-0.23151 0.53597,-0.51514 0.88539,-0.78945 0.0438,0.44186 0.1011,0.91388 0.0406,1.18523 -0.0305,0.13635 -0.0749,0.22542 -0.1275,0.2803 a 3.9735029,3.9735029 0 0 0 0.38291,0.0914 c 0.0476,-0.0896 0.084,-0.18784 0.1071,-0.29194 0.0973,-0.43691 0.0268,-1.01834 -0.0453,-1.58223 0.24765,-0.18026 0.40461,-0.32529 0.61836,-0.48672 0.21019,0.16579 0.36396,0.31389 0.60756,0.49917 -0.0841,0.56272 -0.16707,1.14301 -0.0789,1.58223 0.0217,0.1083 0.0571,0.21091 0.10545,0.30357 a 3.9735029,3.9735029 0 0 0 0.39577,-0.0797 c -0.0582,-0.0544 -0.10695,-0.14775 -0.1371,-0.29735 -0.0548,-0.27282 0.0135,-0.7435 0.066,-1.1848 0.34377,0.28171 0.7187,0.57496 0.86795,0.8098 0.0862,0.13575 0.11415,0.23973 0.10545,0.32102 a 3.9735029,3.9735029 0 0 0 0.34801,-0.21138 c -0.0285,-0.1065 -0.0769,-0.2108 -0.1395,-0.30939 -0.24033,-0.37814 -0.70177,-0.73962 -1.15198,-1.08762 0.0476,-0.30207 0.0573,-0.5154 0.0942,-0.78033 0.26548,-0.0314 0.47883,-0.0372 0.78156,-0.0785 0.33862,0.45771 0.6895,0.92728 1.06272,1.17565 0.1011,0.0672 0.20829,0.1206 0.31852,0.15075 a 3.9735029,3.9735029 0 0 0 0.23132,-0.35007 c -0.0845,0.0162 -0.19526,-0.012 -0.34304,-0.11085 -0.23151,-0.15408 -0.51642,-0.53431 -0.79069,-0.88372 0.44185,-0.0438 0.91345,-0.1011 1.1848,-0.0406 0.1823,0.0406 0.28092,0.10575 0.32435,0.18315 a 3.9735029,3.9735029 0 0 0 0.10005,-0.4128 c -0.10095,-0.0632 -0.21875,-0.10575 -0.3426,-0.13335 -0.43734,-0.0975 -1.01945,-0.027 -1.5839,0.0453 -0.18024,-0.24764 -0.32484,-0.4046 -0.4863,-0.61835 0.1659,-0.21031 0.31503,-0.36381 0.50042,-0.60756 0.5622,0.084 1.14177,0.16656 1.58058,0.0785 0.1272,-0.0255 0.24835,-0.0667 0.35215,-0.13005 a 3.9735029,3.9735029 0 0 0 -0.0905,-0.42358 c -8.1e-4,0.003 -0.001,0.006 -0.003,0.007 -0.0435,0.0788 -0.14595,0.14475 -0.33304,0.18231 -0.27246,0.0548 -0.7425,-0.0135 -1.18316,-0.066 0.28166,-0.34367 0.57338,-0.71873 0.80814,-0.86795 0.16115,-0.10245 0.27996,-0.12555 0.36588,-0.0988 0.002,4.1e-4 0.003,10e-4 0.005,0.003 a 3.9735029,3.9735029 0 0 0 -0.22549,-0.36628 c -0.1185,0.0261 -0.2346,0.0796 -0.34386,0.1491 -0.37814,0.24033 -0.73962,0.70179 -1.08762,1.152 -0.302,-0.0476 -0.51504,-0.0557 -0.77991,-0.0925 -0.0315,-0.2666 -0.0358,-0.48063 -0.0773,-0.78488 0.45703,-0.3382 0.92598,-0.68838 1.174,-1.06105 0.0711,-0.1068 0.12735,-0.2204 0.15657,-0.33722 a 3.9735029,3.9735029 0 0 0 -0.35839,-0.22923 c 0.0234,0.0861 -0.003,0.20255 -0.1071,0.35963 -0.15384,0.23115 -0.53501,0.51561 -0.88373,0.78946 -0.0436,-0.44119 -0.1011,-0.91257 -0.0406,-1.18356 0.04,-0.17932 0.10215,-0.27735 0.17774,-0.32184 a 3.9735029,3.9735029 0 0 0 -0.41405,-0.0939 c -0.0601,0.099 -0.1011,0.2136 -0.12795,0.33389 -0.0975,0.43734 -0.0254,1.01944 0.0469,1.58388 -0.24805,0.18057 -0.40593,0.32461 -0.62002,0.48631 -0.2103,-0.1659 -0.36338,-0.31503 -0.60714,-0.50043 0.084,-0.56218 0.16657,-1.14177 0.0785,-1.58056 -0.0237,-0.1182 -0.0617,-0.23102 -0.1176,-0.32973 z m -0.003,2.35758 c 0.14685,0.11145 0.22577,0.1873 0.353,0.28737 -0.0518,0.0445 -0.1371,0.0982 -0.18065,0.14115 -0.0614,-8.1e-4 -0.16041,0.0183 -0.22882,0.0221 0.0225,-0.1599 0.0278,-0.26895 0.0566,-0.45059 z m 1.30275,0.012 c 0.025,0.18303 0.0261,0.29296 0.0453,0.4539 -0.0686,-0.005 -0.16767,-0.0279 -0.22923,-0.0282 -0.0426,-0.0438 -0.1266,-0.099 -0.17733,-0.14445 0.1299,-0.0978 0.21132,-0.17219 0.36131,-0.28115 z m -0.65781,0.51328 c 0.003,0.003 0.007,0.006 0.0105,0.009 -0.004,0.005 -0.006,0.0105 -0.0105,0.0153 -0.005,-0.004 -0.006,-0.0105 -0.0105,-0.0153 0.003,-0.003 0.009,-0.006 0.0105,-0.009 z m -0.32808,0.26081 c 0.0321,0.005 0.0446,0.007 0.0615,0.012 -0.006,0.0135 -4.5e-4,0.007 -0.019,0.0361 -0.003,0.005 -0.012,0.012 -0.0153,0.017 -0.006,-8.1e-4 -0.0201,-4.5e-4 -0.0253,-0.001 -0.0326,-0.008 -0.0246,-0.006 -0.0378,-0.012 0.009,-0.0153 0.0156,-0.0264 0.0361,-0.0515 z m 0.65159,0.007 c 0.0198,0.0254 0.0259,0.0368 0.0345,0.0519 -0.0135,0.006 -0.006,0.006 -0.0395,0.012 -0.004,7.9e-4 -0.0178,6.6e-4 -0.0232,0.001 -0.003,-0.005 -0.0135,-0.015 -0.0158,-0.019 -0.0181,-0.0285 -0.0135,-0.0225 -0.0187,-0.0362 0.017,-0.004 0.0302,-0.007 0.0627,-0.0105 z m -1.0706,0.03 c 0.003,-2.6e-4 0.009,2.4e-4 0.012,0 -6.9e-4,0.006 0.004,0.012 0.004,0.0188 -0.006,1.9e-4 -0.012,-0.006 -0.019,-0.005 3.5e-4,-0.005 8e-4,-0.009 0.001,-0.0135 z m 1.47549,0.0153 c 0.005,3.6e-4 0.0105,8.1e-4 0.0135,0.002 2.6e-4,0.003 0.001,0.009 0.001,0.0135 -0.007,-7.8e-4 -0.0135,0.005 -0.0208,0.005 -1.5e-4,-0.006 0.006,-0.012 0.004,-0.0188 z m -1.8505,0.0237 c -0.005,0.0684 -0.0279,0.16773 -0.0282,0.22923 -0.0438,0.0426 -0.0992,0.12675 -0.1446,0.17733 -0.0978,-0.1299 -0.17219,-0.21092 -0.28115,-0.36089 0.18285,-0.0249 0.29307,-0.0266 0.4539,-0.0456 z m 2.23797,0.0237 c 0.15991,0.0225 0.26893,0.0277 0.45058,0.0565 -0.11145,0.14685 -0.18732,0.22576 -0.28738,0.35299 -0.0444,-0.0517 -0.0982,-0.13665 -0.14115,-0.18024 8.1e-4,-0.0614 -0.0181,-0.16078 -0.022,-0.22923 z m -1.8584,0.32143 v 4.1e-4 c 0.006,0.0135 0.006,0.006 0.012,0.039 8e-4,0.005 6.6e-4,0.0181 0.001,0.0237 -0.004,0.003 -0.015,0.0135 -0.0187,0.0158 -0.0286,0.0181 -0.0225,0.0135 -0.0361,0.0187 -0.005,-0.017 -0.008,-0.0301 -0.0105,-0.0627 0.0254,-0.0198 0.0363,-0.0262 0.0516,-0.0349 z m 1.46928,0.015 c 0.0155,0.009 0.027,0.0159 0.0531,0.0374 -0.004,0.0315 -0.007,0.0448 -0.012,0.0615 -0.0135,-0.005 -0.007,2.6e-4 -0.0362,-0.0188 -0.004,-0.003 -0.0135,-0.0135 -0.0187,-0.0174 8e-4,-0.006 5.3e-4,-0.0187 0.002,-0.0237 0.007,-0.0336 0.006,-0.0259 0.012,-0.039 z m -0.87294,0.0153 c 0.0486,0.003 0.0825,0.012 0.1383,0.0135 0.0563,5.9e-4 0.0906,-0.007 0.1395,-0.009 0.0326,0.0369 0.0503,0.0681 0.0897,0.10845 0.0397,0.0406 0.0703,0.0591 0.10665,0.0926 -0.003,0.0486 -0.012,0.082 -0.012,0.13785 -5.8e-4,0.0557 0.008,0.0897 0.009,0.1383 -0.0372,0.0328 -0.0672,0.051 -0.108,0.0909 -0.0401,0.0391 -0.0582,0.0691 -0.0914,0.105 -0.049,-0.003 -0.0831,-0.012 -0.1395,-0.012 -0.0563,-5.8e-4 -0.0906,0.007 -0.1395,0.009 -0.0324,-0.0367 -0.0504,-0.0666 -0.0897,-0.10665 -0.0393,-0.0401 -0.0691,-0.0579 -0.105,-0.0909 0.003,-0.0492 0.012,-0.0834 0.012,-0.13995 6e-4,-0.0563 -0.008,-0.0905 -0.009,-0.1395 0.0367,-0.0324 0.067,-0.0506 0.1071,-0.0897 0.0407,-0.0397 0.0587,-0.0703 0.0923,-0.10665 z m -0.90862,0.31728 c 0.004,0.005 0.012,0.006 0.0157,0.0105 -0.004,0.005 -0.012,0.006 -0.0157,0.0105 -0.003,-0.003 -0.006,-0.009 -0.008,-0.0105 0.003,-0.003 0.006,-0.007 0.008,-0.0105 z m 2.08762,0.0221 c 0.003,0.003 0.006,0.007 0.007,0.0105 -0.003,0.003 -0.006,0.009 -0.007,0.0105 -0.005,-0.005 -0.012,-0.006 -0.0157,-0.0105 0.004,-0.005 0.012,-0.006 0.0157,-0.0105 z m -1.82101,0.25583 h 4.2e-4 c 0.0135,0.006 0.007,5.2e-4 0.0343,0.0188 0.005,0.003 0.0135,0.0135 0.0188,0.0174 -8e-4,0.005 -5.9e-4,0.0173 -0.002,0.0221 -0.007,0.0328 -0.006,0.0259 -0.012,0.039 -0.0152,-0.009 -0.0266,-0.0156 -0.0519,-0.0362 0.005,-0.0323 0.008,-0.0441 0.012,-0.061 z m 1.54941,0.0157 c 0.005,0.017 0.009,0.0301 0.0105,0.0627 -0.0254,0.0198 -0.0367,0.0259 -0.0519,0.0345 -0.006,-0.0135 -0.006,-0.006 -0.012,-0.039 -8.1e-4,-0.005 -6.8e-4,-0.0181 -0.001,-0.0237 0.004,-0.003 0.015,-0.0135 0.0187,-0.0157 0.0284,-0.018 0.0225,-0.0135 0.0361,-0.0188 z m -2.06229,0.009 c 0.0446,0.0517 0.0982,0.1371 0.14115,0.18064 -8e-4,0.0614 0.0199,0.16079 0.0237,0.22923 -0.16035,-0.0225 -0.26999,-0.0276 -0.45225,-0.0565 0.11145,-0.14685 0.18732,-0.22618 0.28738,-0.3534 z m 2.57392,0.027 c 0.0975,0.1296 0.1725,0.20967 0.28115,0.35922 -0.18285,0.0249 -0.29307,0.0266 -0.4539,0.0457 0.005,-0.0681 0.0282,-0.16643 0.0286,-0.22758 0.0438,-0.0426 0.0987,-0.1266 0.14415,-0.17733 z m -1.59012,0.40947 h 4.2e-4 c 0.003,0.005 0.012,0.015 0.0153,0.0188 0.0183,0.0285 0.0135,0.0226 0.0191,0.0361 -0.017,0.005 -0.0305,0.009 -0.0632,0.0105 -0.0195,-0.025 -0.0258,-0.0366 -0.0345,-0.0519 0.0135,-0.006 0.006,-0.006 0.0395,-0.012 0.004,-8e-4 0.0178,-6.8e-4 0.0233,-0.001 z m -0.42816,0.001 c 2e-4,0.006 -0.006,0.012 -0.005,0.0188 -0.003,-3.3e-4 -0.009,-0.001 -0.012,-0.001 -2.8e-4,-0.005 2.7e-4,-0.0105 0,-0.0135 0.006,6e-4 0.012,-0.003 0.0174,-0.003 z m 1.02452,0.005 h 4e-4 c 0.006,7.9e-4 0.0196,1e-5 0.0249,0.001 0.0335,0.008 0.0264,0.006 0.0395,0.0135 -0.009,0.0151 -0.0169,0.0259 -0.0378,0.0514 -0.0322,-0.005 -0.0446,-0.007 -0.0615,-0.012 0.006,-0.0135 4.5e-4,-0.007 0.019,-0.0361 0.003,-0.005 0.012,-0.012 0.0153,-0.017 z m 0.42856,0.0105 h 4.2e-4 c 0.006,-1.8e-4 0.012,0.006 0.0187,0.005 -3.3e-4,0.003 -0.002,0.009 -0.002,0.012 -0.004,2.8e-4 -0.0105,0.001 -0.0135,0.001 6.8e-4,-0.006 -0.003,-0.012 -0.003,-0.019 z m -0.72964,0.29194 c 0.005,0.004 0.006,0.0135 0.0105,0.0174 -0.003,0.003 -0.009,0.006 -0.0105,0.007 -0.003,-0.003 -0.007,-0.006 -0.0105,-0.007 0.006,-0.005 0.006,-0.012 0.0105,-0.0174 z m -0.70142,0.0847 c 0.0675,0.005 0.16518,0.0261 0.22592,0.0266 0.0429,0.0442 0.1278,0.10035 0.17898,0.14625 -0.12945,0.0975 -0.21032,0.17102 -0.35964,0.2795 -0.0249,-0.18242 -0.0261,-0.29175 -0.0453,-0.45225 z m 1.40324,0.0135 c -0.0225,0.16035 -0.028,0.26997 -0.0568,0.45225 -0.14685,-0.1116 -0.22577,-0.18732 -0.353,-0.28737 0.0517,-0.0446 0.1371,-0.0983 0.18066,-0.14115 0.0614,8.1e-4 0.16079,-0.0199 0.22923,-0.0237 z"
         id="path1604"
         inkscape:connector-curvature="0" />
    </g>
  </g>
</svg>
