<?xml version="1.0" encoding="UTF-8" standalone="no"?>
<!-- Created with Inkscape (http://www.inkscape.org/) -->

<svg
   xmlns:dc="http://purl.org/dc/elements/1.1/"
   xmlns:cc="http://creativecommons.org/ns#"
   xmlns:rdf="http://www.w3.org/1999/02/22-rdf-syntax-ns#"
   xmlns:svg="http://www.w3.org/2000/svg"
   xmlns="http://www.w3.org/2000/svg"
   xmlns:sodipodi="http://sodipodi.sourceforge.net/DTD/sodipodi-0.dtd"
   xmlns:inkscape="http://www.inkscape.org/namespaces/inkscape"
   width="316.33438mm"
   height="300.58298mm"
   viewBox="0 0 316.33438 300.58298"
   version="1.1"
   id="svg4109"
   inkscape:version="0.92.5 (2060ec1f9f, 2020-04-08)"
   sodipodi:docname="marks.svg">
  <defs
     id="defs4103" />
  <sodipodi:namedview
     id="base"
     pagecolor="#ffffff"
     bordercolor="#666666"
     borderopacity="1.0"
     inkscape:pageopacity="0.0"
     inkscape:pageshadow="2"
     inkscape:zoom="0.49497475"
     inkscape:cx="713.51468"
     inkscape:cy="746.7096"
     inkscape:document-units="px"
     inkscape:current-layer="layer1"
     showgrid="false"
     fit-margin-top="10"
     fit-margin-left="10"
     fit-margin-right="10"
     fit-margin-bottom="10"
     inkscape:pagecheckerboard="true"
     inkscape:window-width="2560"
     inkscape:window-height="1016"
     inkscape:window-x="0"
     inkscape:window-y="27"
     inkscape:window-maximized="1" />
  <metadata
     id="metadata4106">
    <rdf:RDF>
      <cc:Work
         rdf:about="">
        <dc:format>image/svg+xml</dc:format>
        <dc:type
           rdf:resource="http://purl.org/dc/dcmitype/StillImage" />
        <dc:title></dc:title>
      </cc:Work>
    </rdf:RDF>
  </metadata>
  <g
     inkscape:label="Calque 1"
     inkscape:groupmode="layer"
     id="layer1"
     transform="translate(182.35767,-68.845411)">
    <path
       style="color:#000000;font-style:normal;font-variant:normal;font-weight:normal;font-stretch:normal;font-size:medium;line-height:normal;font-family:sans-serif;font-variant-ligatures:normal;font-variant-position:normal;font-variant-caps:normal;font-variant-numeric:normal;font-variant-alternates:normal;font-feature-settings:normal;text-indent:0;text-align:start;text-decoration:none;text-decoration-line:none;text-decoration-style:solid;text-decoration-color:#000000;letter-spacing:normal;word-spacing:normal;text-transform:none;writing-mode:lr-tb;direction:ltr;text-orientation:mixed;dominant-baseline:auto;baseline-shift:baseline;text-anchor:start;white-space:normal;shape-padding:0;clip-rule:nonzero;display:inline;overflow:visible;visibility:visible;opacity:1;isolation:auto;mix-blend-mode:normal;color-interpolation:sRGB;color-interpolation-filters:linearRGB;solid-color:#000000;solid-opacity:1;vector-effect:none;fill:#ffffff;fill-opacity:1;fill-rule:nonzero;stroke:none;stroke-width:5.34458351;stroke-linecap:round;stroke-linejoin:bevel;stroke-miterlimit:4;stroke-dasharray:21.3783342, 10.6891671;stroke-dashoffset:0;stroke-opacity:1;paint-order:markers fill stroke;color-rendering:auto;image-rendering:auto;shape-rendering:auto;text-rendering:auto;enable-background:accumulate"
       d="m -47.980054,226.9193 c 0.73615,2.11761 1.757013,4.13766 3.045689,5.98859 a 2.672559,2.672559 0 1 0 4.385553,-3.05533 c -2.002983,-2.87689 -3.201937,-6.34618 -3.432475,-9.85782 l -8.91e-4,-0.004 c -0.182322,-2.72911 0.227884,-5.51201 1.189929,-8.07402 a 2.672559,2.672559 0 1 0 -5.003781,-1.87902 c -1.231621,3.27991 -1.752834,6.80816 -1.519719,10.3057 l 8.91e-4,0.004 c 0.14742,2.24015 0.599086,4.45552 1.334804,6.5719 z m 10.542467,12.06192 a 2.672559,2.672559 0 0 0 1.391597,1.7703 c 2.566706,1.34766 5.3621,2.24092 8.239781,2.62549 5.064864,0.68537 10.276888,-0.24247 14.798565,-2.60186 a 2.672559,2.672559 0 1 0 -2.472099,-4.73881 c -3.529689,1.84177 -7.675433,2.57787 -11.613265,2.04429 l -0.0042,-0.001 c -2.248334,-0.30047 -4.452813,-1.00416 -6.464508,-2.06042 a 2.672559,2.672559 0 0 0 -3.875822,2.96202 z m -4.512846,-36.06781 a 2.672559,2.672559 0 0 0 4.408386,1.29834 c 2.287547,-2.06489 5.101822,-3.57477 8.090167,-4.3504 l 0.247779,-0.0641 0.248671,-0.0602 c 2.909477,-0.68599 5.995761,-0.69076 8.89765,-0.004 l 0.0042,0.001 c 3.177364,0.74489 6.182457,2.32038 8.608309,4.50707 a 2.6732399,2.6732399 0 1 0 3.5791228,-3.97174 c -3.1031328,-2.79719 -6.8963348,-4.78368 -10.9668128,-5.73793 -3.501968,-0.82783 -7.151219,-0.80117 -10.665468,-0.0754 a 2.672559,2.672559 0 0 0 -0.679594,0.0789 2.672559,2.672559 0 0 0 -0.0019,4.5e-4 2.672559,2.672559 0 0 0 -0.01331,0.003 l -0.279097,0.0674 -0.03233,0.008 -0.278206,0.0712 -0.01141,0.003 c -3.8257,0.99298 -7.389952,2.90384 -10.329089,5.55689 a 2.672559,2.672559 0 0 0 -0.827113,2.66914 z m 33.0575268,29.25707 a 2.672559,2.672559 0 0 0 4.7830085,0.76526 c 2.1964231,-3.15118 3.64723228,-6.79679 4.20228134,-10.6031 0.60896088,-4.12238 0.14578087,-8.35634 -1.29626634,-12.24785 a 2.672559,2.672559 0 1 0 -5.0115292,1.85595 c 1.1310382,3.05222 1.4927971,6.40815 1.0185198,9.61485 l -5.65e-4,0.006 c -0.4330356,2.9696 -1.5784717,5.85325 -3.2970441,8.31886 a 2.672559,2.672559 0 0 0 -0.398405,2.28988 z"
       id="path1028"
       inkscape:connector-curvature="0" />
    <path
       style="opacity:1;fill:none;stroke:#ffffff;stroke-width:5.29166651;stroke-linecap:round;stroke-linejoin:round;stroke-miterlimit:4;stroke-dasharray:10.58333344, 10.58333344000000054;stroke-dashoffset:47.625;stroke-opacity:1"
       d="M -169.71157,81.528928 V 356.74488"
       id="path1032"
       inkscape:connector-curvature="0" />
    <path
       inkscape:connector-curvature="0"
       id="path1354"
       d="M 121.33062,81.528928 V 356.74488"
       style="opacity:1;fill:none;stroke:#ffffff;stroke-width:5.29166651;stroke-linecap:round;stroke-linejoin:round;stroke-miterlimit:4;stroke-dasharray:10.58333344, 10.58333344000000054;stroke-dashoffset:47.625;stroke-opacity:1" />
  </g>
</svg>
